<?xml version="1.0" encoding="UTF-8" standalone="no"?>
<svg version="1.1"
	xmlns="http://www.w3.org/2000/svg" 
    xmlns:xlink="http://www.w3.org/1999/xlink" 
    xmlns:a="http://ns.adobe.com/AdobeSVGViewerExtensions/3.0/"
    width="100"
    height="100">

    <rect width="100" height="100"/>
    
    <g transform="matrix(1 0 0 -1 50 50)">
        <rect width="6" height="24" x="-4" y="20.5" rx="1" transform="rotate()" fill="white">
            <animate attributeName="opacity" values="1;0.1" dur="1.2s" begin="0" repeatCount="indefinite"/>
        </rect>
        <rect width="6" height="24" x="-4" y="20.5" rx="1" transform="rotate(-30)" fill="white">
            <animate attributeName="opacity" values="1;0.1" dur="1.2s" bagin="0.1" repeatCount="indefinite"/>
        </rect>
        <rect width="6" height="24" x="-4" y="20.5" rx="1" transform="rotate(-60)" fill="white">
            <animate attributeName="opacity" values="1;0.1" dur="1.2s" begin="0.2" repeatCount="indefinite"/>
        </rect>
        <rect width="6" height="24" x="-4" y="20.5" rx="1" transform="rotate(-90)" fill="white">
            <animate attributeName="opacity" values="1;0.1" dur="1.2s" begin="0.3" repeatCount="indefinite"/>
        </rect>
        <rect width="6" height="24" x="-4" y="20.5" rx="1" transform="rotate(-120)" fill="white">
            <animate attributeName="opacity" values="1;0.1" dur="1.2s" begin="0.4" repeatCount="indefinite"/>
        </rect>
        <rect width="6" height="24" x="-4" y="20.5" rx="1" transform="rotate(-150)" fill="white">
            <animate attributeName="opacity" values="1;0.1" dur="1.2s" begin="0.5" repeatCount="indefinite"/>
        </rect>
        <rect width="6" height="24" x="-4" y="20.5" rx="1" transform="rotate(-180)" fill="white">
            <animate attributeName="opacity" values="1;0.1" dur="1.2s" begin="0.6" repeatCount="indefinite"/>
        </rect>
        <rect width="6" height="24" x="-4" y="20.5" rx="1" transform="rotate(-210)" fill="white">
            <animate attributeName="opacity" values="1;0.1" dur="1.2s" begin="0.7" repeatCount="indefinite"/>
        </rect>
        <rect width="6" height="24" x="-4" y="20.5" rx="1" transform="rotate(-240)" fill="white">
            <animate attributeName="opacity" values="1;0.1" dur="1.2s" begin="0.8" repeatCount="indefinite"/>
        </rect>
        <rect width="6" height="24" x="-4" y="20.5" rx="1" transform="rotate(-270)" fill="white">
            <animate attributeName="opacity" values="1;0.1" dur="1.2s" begin="0.9" repeatCount="indefinite"/>
        </rect>
        <rect width="6" height="24" x="-4" y="20.5" rx="1" transform="rotate(-300)" fill="white">
            <animate attributeName="opacity" values="1;0.1" dur="1.2s" begin="1.0" repeatCount="indefinite"/>
        </rect>
        <rect width="6" height="24" x="-4" y="20.5" rx="1" transform="rotate(-330)" fill="white">
            <animate attributeName="opacity" values="1;0.1" dur="1.2s" begin="1.1" repeatCount="indefinite"/>
        </rect>
    </g>

</svg>