<?xml version="1.0" encoding="UTF-8" standalone="no"?>
<svg version="1.1"
	xmlns="http://www.w3.org/2000/svg"
    xmlns:xlink="http://www.w3.org/1999/xlink"
    xmlns:a="http://ns.adobe.com/AdobeSVGViewerExtensions/3.0/"
    width="100"
    height="100"
    viewBox="0 0 100 100"
    xml:space="preserve">

	<rect width="40" height="70" x="30" y="20" fill="#2F2CB8" />
		
	<rect width="44" height="4" x="28" y="90" fill="#2F2CB8" />
		
	<rect width="44" height="6" x="28" y="20" fill="#2F2CB8" />

	<rect width="38" height="5" x="31" y="18" fill="#2F2CB8" />
	
	<polygon points="33,20 33,16 49,13 51,13 67,16 67,20" fill="#2F2CB8"/>
	
	<rect width="12" height="13" x="35" y="75" stroke="white" fill="#2F2CB8" />
	<rect width="12" height="13" x="53" y="75" stroke="white" fill="#2F2CB8" />
	<rect width="12" height="13" x="35" y="60" stroke="white" fill="#2F2CB8" />
	<rect width="12" height="13" x="53" y="60" stroke="white" fill="#2F2CB8" />
	<rect width="12" height="13" x="35" y="45" stroke="white" fill="#2F2CB8" />
	<rect width="12" height="13" x="53" y="45" stroke="white" fill="#2F2CB8" />
	
	<rect width="14" height="14" x="34" y="28" fill="white"/>
	<line x1="34" y1="35" x2="48" y2="35" stroke="#2F2CB8"  />
	<line x1="38" y1="27" x2="38" y2="44" stroke="#2F2CB8"  />
	<line x1="44" y1="27" x2="44" y2="44" stroke="#2F2CB8"  />
	
	<rect width="14" height="14" x="52" y="28" fill="white"/>
	<line x1="50" y1="35" x2="70" y2="35" stroke="#2F2CB8"  />
	<line x1="56" y1="27" x2="56" y2="44" stroke="#2F2CB8"  />
	<line x1="62" y1="27" x2="62" y2="44" stroke="#2F2CB8"  />

</svg>
